<svg version="1.1" id="Layer_1" xmlns="http://www.w3.org/2000/svg" xmlns:xlink="http://www.w3.org/1999/xlink" x="0px" y="0px"
	 width="100%" viewBox="0 0 528 496" enable-background="new 0 0 528 496" xml:space="preserve">
<path fill="#000000" opacity="1.000000" stroke="none" 
	d="
M20.468658,497.000000 
	C18.495024,490.154388 21.715281,485.638245 27.001591,481.763763 
	C71.472084,449.169922 115.881699,416.493011 160.298904,383.826508 
	C163.250076,381.656097 165.968475,379.137604 169.050247,377.183319 
	C174.406937,373.786438 178.468597,370.022369 176.746307,362.789551 
	C176.064606,359.926758 177.685410,357.278320 178.993286,354.755676 
	C184.972748,343.222290 190.866989,331.642822 197.011612,320.197906 
	C199.519028,315.527588 200.763916,310.829346 200.784241,305.457275 
	C200.856659,286.302399 201.329620,267.149139 201.642090,247.995071 
	C201.674011,246.038727 201.646378,244.081406 201.646378,241.186172 
	C195.186462,243.344482 190.480164,246.299347 187.014664,251.221115 
	C183.519745,256.184692 181.605881,261.890106 179.242340,267.392792 
	C177.673584,271.045105 176.411957,274.876160 173.340866,277.713593 
	C169.783768,281.000092 165.805649,281.874146 161.409027,279.860016 
	C157.688980,278.155823 155.230637,272.765228 155.910339,268.390167 
	C159.878693,242.847244 179.226929,222.305527 204.306229,217.008972 
	C217.326508,214.259186 226.839157,223.427444 225.800491,237.183304 
	C225.257095,244.379807 225.704620,251.651138 225.704620,259.800537 
	C232.240662,256.469147 238.109268,253.465759 243.989731,250.485779 
	C246.959854,248.980606 249.869171,247.313080 252.949112,246.075104 
	C261.429077,242.666611 268.401581,245.308533 272.638397,253.414917 
	C275.580078,259.043304 277.252167,265.166687 279.393127,271.109222 
	C281.648071,277.368195 284.072845,283.566376 286.472565,289.772156 
	C286.692719,290.341522 287.269043,290.773163 287.819580,291.437103 
	C291.912537,289.637512 295.257935,286.879913 298.665344,284.296021 
	C326.011230,263.559265 354.275970,244.094299 382.046631,223.946136 
	C421.278839,195.482361 460.542542,167.061935 499.758850,138.576263 
	C505.347534,134.516815 511.098450,132.101059 517.791931,135.689743 
	C523.891602,138.960083 525.260376,144.689148 525.259460,150.963867 
	C525.245911,244.279175 525.206909,337.594482 525.191101,430.909790 
	C525.189026,443.301453 524.248718,455.446777 518.779297,466.925323 
	C512.697327,479.689545 503.486450,489.367981 491.189758,496.724731 
	C484.312347,497.000000 477.624725,497.000000 470.693115,496.745819 
	C474.014099,492.826752 474.330322,487.005646 479.290161,484.110016 
	C485.821716,480.296783 490.141022,474.486023 492.763367,467.310211 
	C494.409760,462.804932 496.005280,458.136597 499.686005,454.736053 
	C510.128265,445.088623 514.659424,433.461914 512.061340,419.235992 
	C511.485687,416.083862 510.489227,413.315247 507.617432,411.848541 
	C498.810059,407.350281 490.223663,402.056152 479.483368,405.539429 
	C474.873138,407.034607 470.553223,406.156616 467.983978,401.225342 
	C466.967133,399.273682 464.887665,398.029541 462.975311,398.713928 
	C456.618317,400.988953 450.062439,399.275299 443.671478,400.158173 
	C435.723511,401.256195 427.294189,400.288086 420.614349,406.537170 
	C418.787109,408.246552 415.640472,408.164764 412.907288,407.686249 
	C403.014008,405.954041 398.118011,401.257690 395.691895,391.446442 
	C393.825623,383.899078 391.803314,376.388062 389.717010,368.898041 
	C388.175812,363.364929 372.186432,355.434814 366.879272,357.494690 
	C365.966125,357.849091 365.200775,358.565948 364.322327,359.030670 
	C356.095581,363.382507 351.821014,371.830170 345.005890,377.652039 
	C340.700958,381.329590 336.810883,385.290253 334.096375,390.475220 
	C330.515411,397.315308 325.562653,403.300659 319.066315,407.556610 
	C306.308746,415.914368 293.618866,424.352142 279.472565,430.433105 
	C270.864716,434.133240 264.177979,440.484680 260.996948,449.717651 
	C259.425476,454.278870 257.862976,458.877686 256.809937,463.574646 
	C255.337936,470.140198 254.832687,476.908325 257.997650,483.109802 
	C260.085297,487.200287 264.057953,490.423492 262.937378,495.787872 
	C262.885254,496.037415 264.279419,496.589081 265.000000,497.000000 
	C183.645767,497.000000 102.291542,497.000000 20.468658,497.000000 
M253.375458,271.041321 
	C246.921844,273.314392 241.342178,277.495239 234.982376,279.831238 
	C226.528091,282.936523 222.648758,288.396088 223.586685,297.393097 
	C223.825378,299.682800 223.143280,302.071411 223.403625,304.355408 
	C224.609055,314.931061 221.611160,324.356110 216.112000,333.234985 
	C214.015717,336.619629 212.241730,340.210083 210.439102,343.766663 
	C209.909805,344.811035 208.623108,345.821716 209.755386,347.474640 
	C214.947662,344.744751 219.478958,341.112549 224.159042,337.714966 
	C236.806519,328.533295 249.472275,319.375397 262.017609,310.055725 
	C264.241150,308.403931 267.984070,306.931458 266.463440,303.160858 
	C262.186066,292.554718 259.457367,281.343109 253.375458,271.041321 
M322.574493,294.129089 
	C309.490479,304.005096 295.873474,313.199127 283.527649,324.098175 
	C291.265625,323.252991 298.657501,321.868896 306.545441,319.493103 
	C302.608917,336.040375 295.899170,350.894806 292.215881,366.751892 
	C311.258026,337.892761 328.431335,307.943024 346.369324,278.454376 
	C346.012634,278.184082 345.655945,277.913788 345.299255,277.643494 
	C337.913696,282.992432 330.528107,288.341400 322.574493,294.129089 
M235.672913,385.186340 
	C244.600449,369.695709 253.528000,354.205078 262.455536,338.714447 
	C262.240723,338.573700 262.025909,338.432953 261.811127,338.292175 
	C239.887604,354.042236 217.964081,369.792297 196.040558,385.542358 
	C196.262604,385.942139 196.484634,386.341949 196.706665,386.741730 
	C206.606384,385.170502 215.908356,381.154327 226.712067,378.319885 
	C224.417297,385.988708 222.465057,392.610016 220.452011,399.212799 
	C218.427765,405.852417 216.342972,412.473541 214.284714,419.102783 
	C214.605209,419.256897 214.925720,419.411011 215.246216,419.565094 
	C221.934250,408.317902 228.622269,397.070709 235.672913,385.186340 
z"/>
<path fill="#000000" opacity="1.000000" stroke="none" 
	d="
M468.745422,77.189705 
	C480.899841,87.720551 485.448944,102.875275 480.771210,116.557983 
	C475.910828,130.774811 463.169373,140.454742 447.551117,141.163696 
	C426.354401,142.125870 408.853394,122.059608 411.394592,103.016724 
	C413.270599,88.958397 419.850616,78.872353 432.296356,72.984535 
	C444.886688,67.028320 457.209564,68.368454 468.745422,77.189705 
z"/>
<path fill="#000000" opacity="1.000000" stroke="none" 
	d="
M227.621429,211.270782 
	C216.904602,211.532928 208.821960,207.531784 204.626312,197.980820 
	C200.703720,189.051575 201.940842,180.283035 208.491821,172.814102 
	C214.520752,165.940384 225.727570,163.652954 234.201324,167.134735 
	C242.390503,170.499588 248.257843,179.415436 248.223740,188.442719 
	C248.188171,197.859268 241.889862,206.448074 232.366669,209.990875 
	C230.969070,210.510803 229.495331,210.826050 227.621429,211.270782 
z"/>
<path fill="#000000" opacity="1.000000" stroke="none" 
	d="
M496.058167,94.859970 
	C494.845123,86.258492 496.294403,84.505272 504.456360,83.598282 
	C507.568420,83.252449 510.627777,82.451988 513.722290,81.924217 
	C519.093262,81.008224 523.294250,83.391808 524.200134,87.813522 
	C525.183960,92.615967 522.739014,95.875130 516.844055,96.873291 
	C512.290955,97.644257 507.647858,97.888878 503.042358,98.343422 
	C500.176453,98.626274 497.803070,97.784424 496.058167,94.859970 
z"/>
<path fill="#000000" opacity="1.000000" stroke="none" 
	d="
M455.211548,49.426414 
	C453.986938,54.010651 451.494080,56.716805 446.938385,56.137566 
	C442.170166,55.531307 441.042694,51.742092 440.855896,47.714355 
	C440.656036,43.405586 440.663361,39.076313 440.819366,34.764641 
	C441.022614,29.146492 443.402252,26.643406 448.120605,26.694181 
	C452.613251,26.742529 455.084808,29.509014 455.247070,35.038670 
	C455.383392,39.684174 455.260651,44.337280 455.211548,49.426414 
z"/>
<path fill="#000000" opacity="1.000000" stroke="none" 
	d="
M479.975983,52.021057 
	C482.584229,49.208824 484.887390,46.600567 487.310150,44.108624 
	C489.943298,41.400307 492.921570,40.568699 496.093384,43.205379 
	C499.301941,45.872597 500.433319,49.106121 497.826172,52.785019 
	C494.668213,57.241116 491.329224,61.557659 487.488800,65.479271 
	C484.398346,68.635101 481.240753,68.956055 477.849182,66.161957 
	C474.569397,63.459949 473.997162,59.466385 476.433533,55.988667 
	C477.376099,54.643234 478.618042,53.507523 479.975983,52.021057 
z"/>
<path fill="#000000" opacity="1.000000" stroke="none" 
	d="
M383.671875,116.471550 
	C387.029785,115.928329 389.955536,115.236572 392.910400,115.074097 
	C396.914520,114.853935 399.501587,116.889923 400.340698,120.891983 
	C401.153870,124.770203 399.568268,127.647835 395.893188,128.622101 
	C390.476105,130.058182 384.944427,131.296341 379.384033,131.879303 
	C375.335205,132.303787 372.306854,129.938843 371.798798,125.637962 
	C371.311493,121.512535 372.977753,118.521713 377.406281,117.669441 
	C379.354187,117.294571 381.303864,116.928764 383.671875,116.471550 
z"/>
<path fill="#000000" opacity="1.000000" stroke="none" 
	d="
M408.867249,146.739120 
	C411.843903,143.425873 414.980621,142.573318 418.263519,145.357178 
	C421.492584,148.095398 423.629944,151.103043 420.475311,155.583786 
	C417.810974,159.368103 415.784821,163.614777 412.727875,167.139221 
	C409.662292,170.673660 405.747955,171.402710 402.653168,168.961395 
	C399.042786,166.113358 398.880951,162.481323 401.107574,158.755859 
	C403.488556,154.772171 406.112061,150.933426 408.867249,146.739120 
z"/>
<path fill="#000000" opacity="1.000000" stroke="none" 
	d="
M420.920929,62.654411 
	C415.488678,67.452492 412.893677,67.458771 408.611298,62.499252 
	C405.585236,58.994659 402.769318,55.280514 400.152435,51.459354 
	C397.939423,48.227898 397.871887,44.745487 401.182220,42.136097 
	C404.358704,39.632160 407.862152,39.990433 410.624969,42.806496 
	C414.098633,46.347134 417.277771,50.187809 420.445038,54.014061 
	C422.534912,56.538757 422.910065,59.382881 420.920929,62.654411 
z"/>
<path fill="#000000" opacity="1.000000" stroke="none" 
	d="
M382.318970,97.112106 
	C373.641449,95.168961 371.465881,93.242165 371.649719,88.012428 
	C371.789673,84.030594 373.879639,81.824120 377.796112,81.713013 
	C383.633514,81.547401 389.273682,82.887558 394.782349,84.666077 
	C398.786407,85.958824 399.946655,89.115997 399.238434,92.965149 
	C398.525574,96.839401 395.873871,98.554771 392.072052,98.301277 
	C388.950409,98.093147 385.849396,97.575340 382.318970,97.112106 
z"/>
</svg>